<svg id="visual" viewBox="0 0 960 540" width="960" height="540" xmlns="http://www.w3.org/2000/svg" xmlns:xlink="http://www.w3.org/1999/xlink" version="1.1"><rect x="0" y="0" width="960" height="540" fill="#202731"></rect><path d="M0 89L22.8 94C45.7 99 91.3 109 137 114.3C182.7 119.7 228.3 120.3 274 116C319.7 111.7 365.3 102.3 411.2 97.8C457 93.3 503 93.7 548.8 98.3C594.7 103 640.3 112 686 112.2C731.7 112.3 777.3 103.7 823 100C868.7 96.3 914.3 97.7 937.2 98.3L960 99L960 0L937.2 0C914.3 0 868.7 0 823 0C777.3 0 731.7 0 686 0C640.3 0 594.7 0 548.8 0C503 0 457 0 411.2 0C365.3 0 319.7 0 274 0C228.3 0 182.7 0 137 0C91.3 0 45.7 0 22.8 0L0 0Z" fill="#b30048"></path><path d="M0 91L22.8 91.2C45.7 91.3 91.3 91.7 137 92.5C182.7 93.3 228.3 94.7 274 92.5C319.7 90.3 365.3 84.7 411.2 81.2C457 77.7 503 76.3 548.8 74.2C594.7 72 640.3 69 686 73.3C731.7 77.7 777.3 89.3 823 91.3C868.7 93.3 914.3 85.7 937.2 81.8L960 78L960 0L937.2 0C914.3 0 868.7 0 823 0C777.3 0 731.7 0 686 0C640.3 0 594.7 0 548.8 0C503 0 457 0 411.2 0C365.3 0 319.7 0 274 0C228.3 0 182.7 0 137 0C91.3 0 45.7 0 22.8 0L0 0Z" fill="#d12c3d"></path><path d="M0 50L22.8 51.2C45.7 52.3 91.3 54.7 137 53.5C182.7 52.3 228.3 47.7 274 46C319.7 44.3 365.3 45.7 411.2 50.5C457 55.3 503 63.7 548.8 65.7C594.7 67.7 640.3 63.3 686 61.5C731.7 59.7 777.3 60.3 823 60C868.7 59.7 914.3 58.3 937.2 57.7L960 57L960 0L937.2 0C914.3 0 868.7 0 823 0C777.3 0 731.7 0 686 0C640.3 0 594.7 0 548.8 0C503 0 457 0 411.2 0C365.3 0 319.7 0 274 0C228.3 0 182.7 0 137 0C91.3 0 45.7 0 22.8 0L0 0Z" fill="#e8512d"></path><path d="M0 43L22.8 42.3C45.7 41.7 91.3 40.3 137 36.3C182.7 32.3 228.3 25.7 274 25.3C319.7 25 365.3 31 411.2 31.2C457 31.3 503 25.7 548.8 23.2C594.7 20.7 640.3 21.3 686 24C731.7 26.7 777.3 31.3 823 32.7C868.7 34 914.3 32 937.2 31L960 30L960 0L937.2 0C914.3 0 868.7 0 823 0C777.3 0 731.7 0 686 0C640.3 0 594.7 0 548.8 0C503 0 457 0 411.2 0C365.3 0 319.7 0 274 0C228.3 0 182.7 0 137 0C91.3 0 45.7 0 22.8 0L0 0Z" fill="#f7770f"></path></svg>